<?xml version="1.0" encoding="utf-8"?>
<!-- Generator: Adobe Illustrator 26.0.1, SVG Export Plug-In . SVG Version: 6.00 Build 0)  -->
<svg version="1.1" id="Layer_1" xmlns="http://www.w3.org/2000/svg" xmlns:xlink="http://www.w3.org/1999/xlink" x="0px" y="0px"
	 viewBox="0 0 50 49.9" style="enable-background:new 0 0 50 49.9;" xml:space="preserve">
<style type="text/css">
	.st0{fill:#0052CC;}
</style>
<g transform="translate(0.000000,200.000000) scale(0.100000,-0.100000)">
	<path class="st0" d="M169.4,1930.7c-83.3-34-150.7-62.7-149.7-63.7c2.1-2.4,68.9-28.9,73-28.9c4.8,0,301.8,121.8,301.8,123.7
		c0,1.5-13,7-54.8,23.6l-18.8,7.3L169.4,1930.7z"/>
	<path class="st0" d="M298.6,1911.7c-53.8-22.1-120.6-49.6-149-61.2l-51.4-20.9l-1-30.1c-0.7-27.7-0.3-29.9,5.1-28.9
		c3.4,0.7,71.6,28.2,151.8,61l145.6,59.5l1,30.6c0.3,16.8-0.3,30.6-1.7,30.4C397.6,1952.1,352.3,1933.9,298.6,1911.7z"/>
	<path class="st0" d="M415,1851.5v-32.3l35.6-14.8c19.9-8.3,36.7-14.8,37.7-14.8c1,0,2.1,14.1,2.1,31.6c0,30.1-0.3,31.6-7.5,34.8
		c-4.5,1.9-21.2,9-37.7,15.8L415,1884V1851.5z"/>
	<path class="st0" d="M344.8,1857.8l-51.4-21.1l-1-30.9l-1-31.1l7.9,2.9c4.5,1.5,29.1,11.4,55.2,22.1l46.9,19.4v30.1
		c0,16.5-1,30.1-2.4,29.9C397.2,1879.2,373.2,1869.5,344.8,1857.8z"/>
	<path class="st0" d="M10.8,1828.9v-31.1l30.1-11.9c16.4-6.6,33.2-13.4,37.7-15.3l7.5-3.4v31.1v31.4l-19.9,7.8
		c-10.6,4.4-27.8,11.2-37.3,15.3l-18.2,7.3V1828.9z"/>
	<path class="st0" d="M186.5,1792.7l-86.7-35.5v-31.1V1695l50.7,20.9c27.8,11.4,67.8,27.9,89.1,36.7l38.4,15.8v29.9
		c0,16.5-1,30.1-2.4,30.1C273.9,1828.1,233.8,1812.3,186.5,1792.7z"/>
	<path class="st0" d="M389.4,1804.3c-5.5-2.4-43.5-18-83.9-34.3c-40.4-16.5-76.4-31.6-79.5-33.5c-5.1-3.2-6.2-8-6.2-32.8
		c0-26.5,0.3-28.9,5.8-27.2c3.4,0.7,44.2,17,90.8,36L401,1747l0.3,31.1c0,17-0.3,30.9-0.7,30.9
		C400,1808.9,395.2,1806.8,389.4,1804.3z"/>
	<path class="st0" d="M415,1777.6v-31.1l37-14.8l36.7-14.8l1,28.2c0.3,15.6,0.3,29.7-0.7,31.1c-0.7,1.5-17.8,9.5-37.7,17.7
		l-36.3,14.8V1777.6z"/>
	<path class="st0" d="M11.4,1756.4l1-31.1l37-15.3l36.7-15.1v31.1v31.4l-23,9.2c-13,4.9-29.8,11.7-38,15.1l-14.7,5.8L11.4,1756.4z"
		/>
	<path class="st0" d="M286.2,1689.1c-62.4-25.8-129.9-53.2-149.7-61.2l-36.3-14.6l-0.3-31.1c0-17.3,1-30.6,2.7-30.1
		c77.8,31.8,273.7,111.8,284.4,115.9l14.4,5.8v31.1c0,17-0.3,31.1-0.7,30.9C400,1735.8,348.6,1714.9,286.2,1689.1z"/>
	<path class="st0" d="M415,1705.2v-31.1l17.8-7.3c9.9-3.9,27.1-10.9,37.7-15.1l19.9-8v31.1v30.9l-19.9,7.8
		c-10.6,4.4-27.8,11.2-37.3,15.3L415,1736V1705.2z"/>
	<path class="st0" d="M154.7,1708.1c-27.4-11.2-51.7-21.6-54.1-23.1c-4.5-2.7-6.2-60.8-2.1-60.8c1.4,0,26.7,10,56.5,22.1l54.5,22.1
		v30.1c0,16.5-1,30.1-2.4,30.1C205.4,1728.7,182.1,1719.5,154.7,1708.1z"/>
	<path class="st0" d="M10.8,1682.1v-32.6l23.3-9.2c12.7-5.1,29.5-12.2,37.7-15.3l14.4-6.1v32.8v33.1l-32.5,13.6
		c-17.8,7.3-34.9,14.1-37.7,14.8C11.4,1714.4,10.8,1710,10.8,1682.1z"/>
	<path class="st0" d="M262.6,1608.4c-79.1-32.6-146.6-60.5-150.4-62c-5.5-2.4-1.7-4.6,31.9-18.2l38.4-15.6l148.7,61
		c81.9,33.5,149,61.7,149,62.9c0,1.5-71.3,31.8-73,31.1C406.8,1667.7,341.7,1641,262.6,1608.4z"/>
</g>
</svg>
