<?xml version="1.0" standalone="no"?>
<!DOCTYPE svg PUBLIC "-//W3C//DTD SVG 20010904//EN"
 "http://www.w3.org/TR/2001/REC-SVG-20010904/DTD/svg10.dtd">
<svg version="1.0" xmlns="http://www.w3.org/2000/svg"
 width="747.000000pt" height="747.000000pt" viewBox="0 0 747.000000 747.000000"
 preserveAspectRatio="xMidYMid meet">
<metadata>
Created by potrace 1.14, written by Peter Selinger 2001-2017
</metadata>
<g transform="translate(0.000000,747.000000) scale(0.100000,-0.100000)"
fill="#000000" stroke="none">
<path d="M3427 6974 c-265 -27 -505 -78 -747 -160 -74 -25 -139 -49 -145 -53
-5 -4 -32 -16 -60 -26 -66 -24 -293 -137 -379 -189 -38 -22 -83 -49 -100 -60
-43 -25 -235 -161 -268 -188 -14 -13 -61 -52 -104 -88 -148 -123 -334 -317
-447 -465 -4 -5 -17 -21 -28 -35 -26 -31 -140 -194 -165 -236 -11 -17 -38 -62
-60 -100 -23 -38 -63 -112 -89 -164 -26 -52 -52 -106 -60 -120 -24 -46 -86
-202 -116 -294 -85 -252 -127 -440 -160 -716 -17 -133 -17 -542 -1 -680 45
-375 136 -706 282 -1015 27 -59 50 -109 50 -112 0 -5 54 -99 129 -226 25 -42
52 -77 59 -77 7 0 10 -4 7 -10 -8 -13 56 -106 177 -256 106 -133 371 -404 394
-404 8 0 14 -4 14 -10 0 -8 34 -38 159 -138 122 -98 483 -318 502 -307 5 4 9
2 9 -3 0 -8 105 -60 210 -105 238 -102 547 -183 856 -223 176 -24 587 -24 769
0 469 60 900 208 1288 443 51 30 94 59 95 64 2 5 9 9 15 9 7 0 51 28 98 63
266 192 467 383 674 642 87 109 264 375 250 375 -3 0 4 10 15 22 11 13 24 34
27 48 3 14 10 27 14 30 14 10 107 205 158 333 50 126 124 353 134 412 3 17 12
59 21 95 78 327 94 794 41 1155 -9 61 -23 142 -31 180 -9 39 -18 81 -20 95 -3
14 -19 74 -35 134 -130 462 -355 881 -668 1241 -88 102 -225 245 -235 245 -2
0 -26 22 -53 49 -63 64 -200 174 -293 236 -41 28 -77 52 -80 55 -30 30 -216
139 -359 210 -307 152 -585 240 -968 305 -178 30 -573 40 -776 19z"/>
</g>
</svg>
